<svg xmlns="http://www.w3.org/2000/svg" width="300" height="112" viewBox="0 0 300 112"><g transform="translate(0.5,0.5)" text-anchor="middle" font-size="14" font-family="sans-serif" font-weight="normal"><g transform="translate(30,21)"><g stroke="black" stroke-width="1" stroke-linecap="round"><line x2="265"/><line x2="265" y1="31" y2="31"/><line y2="31"/><line x1="265" x2="265" y2="31"/><line x1="232" x2="232" y2="3"/><line x1="232" x2="232" y1="31" y2="28"/><line x1="199" x2="199" y2="31"/><line x1="166" x2="166" y2="3"/><line x1="166" x2="166" y1="31" y2="28"/><line x1="133" x2="133" y2="31"/><line x1="99" x2="99" y2="3"/><line x1="99" x2="99" y1="31" y2="28"/><line x1="66" x2="66" y2="31"/><line x1="33" x2="33" y2="31"/></g><g><g><rect x="199" width="66" height="31" style="fill-opacity:0.1;fill:hsl(126,100%,50%)"/><rect x="133" width="66" height="31" style="fill-opacity:0.1"/><rect x="66" width="66" height="31" style="fill-opacity:0.1"/><rect x="33" width="33" height="31" style="fill-opacity:0.1;fill:hsl(0,100%,50%)"/><rect width="33" height="31" style="fill-opacity:0.1;fill:hsl(170,100%,50%)"/></g><g transform="translate(17,-11)"><g transform="translate(232)"><text y="6">0</text></g><g transform="translate(199)"><text y="6">1</text></g><g transform="translate(166)"><text y="6">2</text></g><g transform="translate(133)"><text y="6">3</text></g><g transform="translate(99)"><text y="6">4</text></g><g transform="translate(66)"><text y="6">5</text></g><g transform="translate(33)"><text y="6">6</text></g><g transform="translate(0)"><text y="6">7</text></g></g><g transform="translate(17,15)"><g transform="translate(215)"><text y="6"><tspan>2</tspan></text></g><g transform="translate(149)"><text y="6"><tspan>0</tspan></text></g><g transform="translate(83)"><text y="6"><tspan>0</tspan></text></g><g transform="translate(33)"><text y="6"><tspan>0</tspan></text></g><g transform="translate(0)"><text y="6"><tspan>0</tspan></text></g></g><g transform="translate(17,39)"><g><g><g transform="translate(232)"><text y="6">0</text></g><g transform="translate(199)"><text y="6">0</text></g></g><g><g transform="translate(232,14)"><text y="6">1</text></g><g transform="translate(199,14)"><text y="6">0</text></g></g><g><g transform="translate(232,28)"><text y="6">0</text></g><g transform="translate(199,28)"><text y="6">1</text></g></g><g><g transform="translate(232,42)"><text y="6">1</text></g><g transform="translate(199,42)"><text y="6">1</text></g></g></g><g><g transform="translate(83)"><text y="6"><tspan>no data</tspan></text></g><g transform="translate(83,14)"><text y="6"><tspan>8 bit parameter</tspan></text></g><g transform="translate(83,28)"><text y="6"><tspan>16 bit parameter</tspan></text></g><g transform="translate(83,42)"><text y="6"><tspan>24 bit parameter</tspan></text></g></g><g transform="translate(33)"><text y="6"><tspan>err</tspan></text></g><g transform="translate(0)"><text y="6"><tspan>ext</tspan></text></g></g></g></g></g></svg>