<svg xmlns="http://www.w3.org/2000/svg" width="600" height="56" viewBox="0 0 600 56"><g transform="translate(0.5,0.5)" text-anchor="middle" font-size="14" font-family="sans-serif" font-weight="normal"><g transform="translate(30,21)"><g stroke="black" stroke-width="1" stroke-linecap="round"><line x2="565"/><line x2="565" y1="31" y2="31"/><line y2="31"/><line x1="565" x2="565" y2="31"/><line x1="530" x2="530" y2="3"/><line x1="530" x2="530" y1="31" y2="28"/><line x1="494" x2="494" y2="31"/><line x1="459" x2="459" y2="3"/><line x1="459" x2="459" y1="31" y2="28"/><line x1="424" x2="424" y2="31"/><line x1="388" x2="388" y2="3"/><line x1="388" x2="388" y1="31" y2="28"/><line x1="353" x2="353" y2="31"/><line x1="318" x2="318" y2="31"/><line x1="283" x2="283" y2="31"/><line x1="247" x2="247" y2="3"/><line x1="247" x2="247" y1="31" y2="28"/><line x1="212" x2="212" y2="31"/><line x1="177" x2="177" y2="3"/><line x1="177" x2="177" y1="31" y2="28"/><line x1="141" x2="141" y2="31"/><line x1="106" x2="106" y2="3"/><line x1="106" x2="106" y1="31" y2="28"/><line x1="71" x2="71" y2="31"/><line x1="35" x2="35" y2="31"/></g><g><g><rect x="494" width="71" height="31" style="fill-opacity:0.1;fill:hsl(126,100%,50%)"/><rect x="424" width="71" height="31" style="fill-opacity:0.1;fill:hsl(126,100%,50%)"/><rect x="353" width="71" height="31" style="fill-opacity:0.1;fill:hsl(126,100%,50%)"/><rect x="318" width="35" height="31" style="fill-opacity:0.1;fill:hsl(0,100%,50%)"/><rect x="283" width="35" height="31" style="fill-opacity:0.1;fill:hsl(170,100%,50%)"/><rect x="212" width="71" height="31" style="fill-opacity:0.1;fill:hsl(126,100%,50%)"/><rect x="141" width="71" height="31" style="fill-opacity:0.1"/><rect x="71" width="71" height="31" style="fill-opacity:0.1;fill:hsl(126,100%,50%)"/><rect x="35" width="35" height="31" style="fill-opacity:0.1"/><rect width="35" height="31" style="fill-opacity:0.1;fill:hsl(170,100%,50%)"/></g><g transform="translate(18,-11)"><g transform="translate(530)"><text y="6">0</text></g><g transform="translate(494)"><text y="6">1</text></g><g transform="translate(459)"><text y="6">2</text></g><g transform="translate(424)"><text y="6">3</text></g><g transform="translate(388)"><text y="6">4</text></g><g transform="translate(353)"><text y="6">5</text></g><g transform="translate(318)"><text y="6">6</text></g><g transform="translate(283)"><text y="6">7</text></g><g transform="translate(247)"><text y="6">8</text></g><g transform="translate(212)"><text y="6">9</text></g><g transform="translate(177)"><text y="6">10</text></g><g transform="translate(141)"><text y="6">11</text></g><g transform="translate(106)"><text y="6">12</text></g><g transform="translate(71)"><text y="6">13</text></g><g transform="translate(35)"><text y="6">14</text></g><g transform="translate(0)"><text y="6">15</text></g></g><g transform="translate(18,15)"><g transform="translate(512)"><text y="6"><tspan>p0[1]</tspan></text></g><g transform="translate(441)"><text y="6"><tspan>p1[3]</tspan></text></g><g transform="translate(371)"><text y="6"><tspan>p2[2]</tspan></text></g><g transform="translate(318)"><text y="6"><tspan>0</tspan></text></g><g transform="translate(283)"><text y="6"><tspan>1</tspan></text></g><g transform="translate(230)"><text y="6"><tspan>p3[2]</tspan></text></g><g transform="translate(159)"><text y="6"><tspan>p4[0]</tspan></text></g><g transform="translate(88)"><text y="6"><tspan>p5[3]</tspan></text></g><g transform="translate(35)"><text y="6"><tspan>0</tspan></text></g><g transform="translate(0)"><text y="6"><tspan>0</tspan></text></g></g><g transform="translate(18,39)"><g transform="translate(318)"><text y="6"><tspan>err</tspan></text></g><g transform="translate(283)"><text y="6"><tspan>ext</tspan></text></g><g transform="translate(0)"><text y="6"><tspan>ext</tspan></text></g></g></g></g></g></svg>