<svg xmlns="http://www.w3.org/2000/svg" width="300" height="84" viewBox="0 0 300 84"><g transform="translate(0.5,0.5)" text-anchor="middle" font-size="14" font-family="sans-serif" font-weight="normal"><g transform="translate(30,21)"><g stroke="black" stroke-width="1" stroke-linecap="round"><line x2="265"/><line x2="265" y1="31" y2="31"/><line y2="31"/><line x1="265" x2="265" y2="31"/><line x1="232" x2="232" y2="3"/><line x1="232" x2="232" y1="31" y2="28"/><line x1="199" x2="199" y2="3"/><line x1="199" x2="199" y1="31" y2="28"/><line x1="166" x2="166" y2="3"/><line x1="166" x2="166" y1="31" y2="28"/><line x1="133" x2="133" y2="31"/><line x1="99" x2="99" y2="3"/><line x1="99" x2="99" y1="31" y2="28"/><line x1="66" x2="66" y2="31"/><line x1="33" x2="33" y2="31"/></g><g><g><rect x="133" width="133" height="31" style="fill-opacity:0.1;fill:hsl(45,100%,50%)"/><rect x="66" width="66" height="31" style="fill-opacity:0.1;fill:hsl(215,100%,50%)"/><rect x="33" width="33" height="31" style="fill-opacity:0.1;fill:hsl(0,100%,50%)"/><rect width="33" height="31" style="fill-opacity:0.1;fill:hsl(170,100%,50%)"/></g><g transform="translate(17,-11)"><g transform="translate(232)"><text y="6">0</text></g><g transform="translate(133)"><text y="6">3</text></g><g transform="translate(99)"><text y="6">4</text></g><g transform="translate(66)"><text y="6">5</text></g><g transform="translate(33)"><text y="6">6</text></g><g transform="translate(0)"><text y="6">7</text></g></g><g transform="translate(17,15)"><g transform="translate(182)"><text y="6"><tspan>error code</tspan></text></g><g transform="translate(83)"><text y="6"><tspan>1</tspan></text></g><g transform="translate(33)"><text y="6"><tspan>1</tspan></text></g><g transform="translate(0)"><text y="6"><tspan>1</tspan></text></g></g><g transform="translate(17,39)"><g transform="translate(182)"><text y="6"><tspan>eg. battery low</tspan></text></g><g transform="translate(83)"><text y="6"><tspan>ext size</tspan></text></g><g transform="translate(33)"><text y="6"><tspan>err</tspan></text></g><g transform="translate(0)"><text y="6"><tspan>ext</tspan></text></g></g></g></g></g></svg>