<svg xmlns="http://www.w3.org/2000/svg" width="900" height="56" viewBox="0 0 900 56"><g transform="translate(0.5,0.5)" text-anchor="middle" font-size="14" font-family="sans-serif" font-weight="normal"><g transform="translate(30,21)"><g stroke="black" stroke-width="1" stroke-linecap="round"><line x2="865"/><line x2="865" y1="31" y2="31"/><line y2="31"/><line x1="865" x2="865" y2="31"/><line x1="829" x2="829" y2="3"/><line x1="829" x2="829" y1="31" y2="28"/><line x1="793" x2="793" y2="3"/><line x1="793" x2="793" y1="31" y2="28"/><line x1="757" x2="757" y2="3"/><line x1="757" x2="757" y1="31" y2="28"/><line x1="721" x2="721" y2="3"/><line x1="721" x2="721" y1="31" y2="28"/><line x1="685" x2="685" y2="3"/><line x1="685" x2="685" y1="31" y2="28"/><line x1="649" x2="649" y2="3"/><line x1="649" x2="649" y1="31" y2="28"/><line x1="613" x2="613" y2="3"/><line x1="613" x2="613" y1="31" y2="28"/><line x1="577" x2="577" y2="3"/><line x1="577" x2="577" y1="31" y2="28"/><line x1="541" x2="541" y2="3"/><line x1="541" x2="541" y1="31" y2="28"/><line x1="505" x2="505" y2="3"/><line x1="505" x2="505" y1="31" y2="28"/><line x1="469" x2="469" y2="3"/><line x1="469" x2="469" y1="31" y2="28"/><line x1="433" x2="433" y2="3"/><line x1="433" x2="433" y1="31" y2="28"/><line x1="396" x2="396" y2="3"/><line x1="396" x2="396" y1="31" y2="28"/><line x1="360" x2="360" y2="3"/><line x1="360" x2="360" y1="31" y2="28"/><line x1="324" x2="324" y2="3"/><line x1="324" x2="324" y1="31" y2="28"/><line x1="288" x2="288" y2="3"/><line x1="288" x2="288" y1="31" y2="28"/><line x1="252" x2="252" y2="3"/><line x1="252" x2="252" y1="31" y2="28"/><line x1="216" x2="216" y2="3"/><line x1="216" x2="216" y1="31" y2="28"/><line x1="180" x2="180" y2="3"/><line x1="180" x2="180" y1="31" y2="28"/><line x1="144" x2="144" y2="3"/><line x1="144" x2="144" y1="31" y2="28"/><line x1="108" x2="108" y2="3"/><line x1="108" x2="108" y1="31" y2="28"/><line x1="72" x2="72" y2="3"/><line x1="72" x2="72" y1="31" y2="28"/><line x1="36" x2="36" y2="3"/><line x1="36" x2="36" y1="31" y2="28"/></g><g><g><rect width="865" height="31" style="fill-opacity:0.1;fill:hsl(126,100%,50%)"/></g><g transform="translate(18,-11)"><g transform="translate(829)"><text y="6">0</text></g><g transform="translate(0)"><text y="6">23</text></g></g><g transform="translate(18,15)"><g transform="translate(414)"><text y="6"><tspan>3-byte parameter value</tspan></text></g></g><g transform="translate(18,39)"/></g></g></g></svg>